<svg width="118" height="21" viewBox="0 0 118 21" fill="none" xmlns="http://www.w3.org/2000/svg">
<path fill-rule="evenodd" clip-rule="evenodd" d="M2.53025 6.28581V2.96361H6.15609C8.27475 2.96361 10.2526 3.52415 11.928 4.68335C12.4572 3.90815 13.0506 3.16005 13.7017 2.47758C11.5354 0.923799 8.94231 0 6.15609 0H0V6.28581C0 12.6432 3.79537 18.0793 8.85586 20.2004V17.0877C5.06049 15.1174 2.53025 11.0166 2.53025 6.28581ZM28.5538 5.60862C28.5538 11.6351 25.4318 17.8412 19.3059 17.8412H14.3231V13.8478C14.3231 10.8955 15.878 8.02736 18.3541 5.86647C20.7323 3.79139 24.0037 2.54889 26.9968 2.54889H28.5538V5.60862ZM26.9968 0.000169915C19.8651 0.000169915 11.8118 5.58441 11.8118 13.8478V20.3899H19.3059C22.8896 20.3899 25.9044 18.8297 28.1197 15.8388C30.1346 13.1193 31.0651 9.54215 31.0651 5.60862V0.000169915H26.9968ZM43.8422 20.0801V12.4276L45.1437 10.9796L51.7828 20.0801H54.7777L46.9175 9.16768L54.8068 0H51.6954L43.8422 8.70513V0H41.3413V20.0801H43.8422ZM67.2092 13.3772C67.2092 17.4854 65.0238 20.4409 60.7584 20.4409C56.7247 20.4409 54.4524 17.4557 54.4524 13.4068C54.4524 9.35784 56.6666 6.37274 60.8452 6.37274C64.9951 6.37274 67.2092 9.35784 67.2092 13.3772ZM60.787 8.53046C63.399 8.53046 64.8298 10.3921 64.8298 13.4068C64.8298 16.3919 63.399 18.2836 60.787 18.2836C58.2917 18.2836 56.8028 16.4215 56.8028 13.3772C56.8028 10.3921 58.2917 8.53046 60.787 8.53046ZM69.3353 6.6696H71.615V8.3017C72.4039 7.17414 74.0406 6.37274 75.9986 6.37274C79.301 6.37274 80.6746 8.18279 80.6746 11.5655V20.2004H78.3368V11.7736C78.3368 9.66667 77.6061 8.56883 75.2972 8.56883C73.719 8.56883 72.4039 9.67601 71.6731 10.5662V20.2004H69.3353V6.6696ZM88.7952 18.2436C87.5158 18.2436 86.9921 17.472 86.9921 16.2248V8.65431H90.5401V6.60574H86.9921V2.77588L84.695 3.2212V6.60574L82.1648 6.61042V8.65431H84.695V16.4921C84.695 18.8674 85.7127 20.4409 88.1264 20.4409C89.1736 20.4409 90.1621 20.203 90.831 19.8766L90.5983 17.8281C90.0456 18.0656 89.3767 18.2436 88.7952 18.2436ZM93.325 20.0801H95.6029V6.55498H93.325V20.0801ZM94.4353 0C93.5243 0 92.8408 0.504327 92.8408 1.66071C92.8408 2.81753 93.5243 3.26242 94.4353 3.26242C95.2614 3.26242 96.0301 2.81753 96.0301 1.66071C96.0301 0.504327 95.2614 0 94.4353 0ZM106.655 9.71232C105.927 8.91454 104.82 8.26397 103.277 8.26397C101.472 8.26397 100.715 9.20979 100.715 10.3032C100.715 11.1311 101.152 11.7812 102.345 12.0769L104.616 12.6086C107.091 13.2 108.314 14.441 108.314 16.3919C108.314 18.6084 106.625 20.4409 102.986 20.4409C100.191 20.4409 98.7062 19.229 97.9199 18.1947L99.3467 16.7464C100.075 17.633 100.977 18.5788 103.073 18.5788C104.733 18.5788 105.927 17.9287 105.927 16.5691C105.927 15.5641 105.199 15.032 103.947 14.7071L101.618 14.1458C99.4338 13.6136 98.3858 12.2837 98.3858 10.4809C98.3858 8.55964 99.7543 6.37274 103.365 6.37274C105.752 6.37274 107.266 7.34817 108.023 8.26397L106.655 9.71232ZM115.947 18.2423C114.656 18.2423 114.128 17.4702 114.128 16.2223V8.64738H117.707V6.59762H114.128V2.76553L111.811 3.21111V6.59762L109.259 6.59719V8.64738H111.811V16.4897C111.811 18.8664 112.838 20.4408 115.272 20.4408C116.328 20.4408 117.325 20.2028 118 19.8762L117.765 17.8265C117.208 18.0641 116.533 18.2423 115.947 18.2423Z" fill="#5A2FB1"/>
</svg>
